<?xml version="1.0" encoding="utf-8"?>
<!-- Generator: Adobe Illustrator 16.0.3, SVG Export Plug-In . SVG Version: 6.00 Build 0)  -->
<!DOCTYPE svg PUBLIC "-//W3C//DTD SVG 1.1//EN" "http://www.w3.org/Graphics/SVG/1.1/DTD/svg11.dtd">
<svg version="1.1" xmlns="http://www.w3.org/2000/svg" xmlns:xlink="http://www.w3.org/1999/xlink" x="0px" y="0px" width="48px"
	 height="48px" viewBox="0 0 48 48" enable-background="new 0 0 48 48" xml:space="preserve">
<g id="Ebene_1" display="none">
	<g display="inline">
		<path d="M46,26c0,2.2-1.8,4-4,4c-0.359,0-0.7-0.04-1.02-0.141l-7.121,7.101C33.96,37.279,34,37.641,34,38c0,2.2-1.8,4-4,4
			s-4-1.8-4-4c0-0.359,0.04-0.721,0.141-1.04l-5.101-5.101C20.72,31.96,20.36,32,20,32s-0.72-0.04-1.04-0.141l-9.1,9.121
			C9.96,41.3,10,41.641,10,42c0,2.2-1.8,4-4,4s-4-1.8-4-4s1.8-4,4-4c0.36,0,0.7,0.04,1.02,0.141l9.12-9.101
			C16.04,28.721,16,28.359,16,28c0-2.2,1.8-4,4-4s4,1.8,4,4c0,0.359-0.04,0.721-0.14,1.04l5.1,5.101C29.279,34.04,29.641,34,30,34
			s0.721,0.04,1.04,0.141l7.101-7.121C38.04,26.7,38,26.359,38,26c0-2.2,1.8-4,4-4S46,23.8,46,26z"/>
		<path d="M46,6c0,2.2-1.8,4-4,4c-0.359,0-0.7-0.04-1.02-0.141l-7.121,7.101C33.96,17.279,34,17.641,34,18c0,2.2-1.8,4-4,4
			s-4-1.8-4-4c0-0.359,0.04-0.721,0.141-1.04l-5.101-5.101C20.72,11.96,20.36,12,20,12s-0.72-0.04-1.04-0.141l-9.1,9.121
			C9.96,21.3,10,21.641,10,22c0,2.2-1.8,4-4,4s-4-1.8-4-4s1.8-4,4-4c0.36,0,0.7,0.04,1.02,0.141l9.12-9.101
			C16.04,8.721,16,8.359,16,8c0-2.2,1.8-4,4-4s4,1.8,4,4c0,0.359-0.04,0.721-0.14,1.04l5.1,5.101C29.279,14.04,29.641,14,30,14
			s0.721,0.04,1.04,0.141l7.101-7.121C38.04,6.7,38,6.359,38,6c0-2.2,1.8-4,4-4S46,3.8,46,6z"/>
	</g>
</g>
<g id="Ebene_2">
	<g>
		<path d="M42.375,7.375c-1.035,0-1.875,0.84-1.875,1.875c0,0.116,0.014,0.228,0.034,0.338l-10.101,9.326
			c-0.154-0.042-0.313-0.07-0.48-0.07c-0.133,0-0.263,0.015-0.388,0.041l-7.122-7.324c0.034-0.141,0.056-0.285,0.056-0.436
			c0-1.035-0.839-1.875-1.875-1.875s-1.875,0.84-1.875,1.875c0,0.145,0.02,0.284,0.051,0.419L6.03,24.421
			c-0.131-0.029-0.266-0.046-0.405-0.046c-1.036,0-1.875,0.84-1.875,1.875s0.839,1.875,1.875,1.875S7.5,27.285,7.5,26.25
			c0-0.145-0.02-0.284-0.051-0.42L20.22,12.954C20.351,12.982,20.486,13,20.625,13c0.133,0,0.263-0.015,0.388-0.042l7.122,7.324
			c-0.034,0.141-0.057,0.285-0.057,0.436c0,1.036,0.84,1.875,1.875,1.875s1.875-0.839,1.875-1.875c0-0.116-0.014-0.228-0.034-0.338
			l10.101-9.325c0.154,0.041,0.313,0.07,0.48,0.07c1.035,0,1.875-0.84,1.875-1.875S43.41,7.375,42.375,7.375z"/>
		<path d="M42.375,19.875c-1.035,0-1.875,0.84-1.875,1.875c0,0.116,0.014,0.228,0.034,0.338l-10.101,9.326
			c-0.154-0.041-0.313-0.07-0.48-0.07c-0.133,0-0.263,0.015-0.388,0.041l-7.122-7.324c0.034-0.141,0.056-0.285,0.056-0.436
			c0-1.035-0.839-1.875-1.875-1.875s-1.875,0.84-1.875,1.875c0,0.145,0.02,0.284,0.051,0.419L6.03,36.922
			c-0.131-0.029-0.266-0.047-0.405-0.047c-1.036,0-1.875,0.84-1.875,1.875s0.839,1.875,1.875,1.875S7.5,39.785,7.5,38.75
			c0-0.145-0.02-0.284-0.051-0.42L20.22,25.453c0.13,0.029,0.266,0.047,0.405,0.047c0.133,0,0.263-0.015,0.388-0.041l7.122,7.324
			c-0.034,0.141-0.057,0.285-0.057,0.436c0,1.035,0.84,1.875,1.875,1.875s1.875-0.84,1.875-1.875c0-0.115-0.014-0.229-0.034-0.338
			l10.101-9.326c0.154,0.041,0.313,0.07,0.48,0.07c1.035,0,1.875-0.84,1.875-1.875S43.41,19.875,42.375,19.875z"/>
	</g>
</g>
</svg>
