<?xml version="1.0" encoding="utf-8"?>
<!-- Generator: Adobe Illustrator 16.0.3, SVG Export Plug-In . SVG Version: 6.00 Build 0)  -->
<!DOCTYPE svg PUBLIC "-//W3C//DTD SVG 1.1//EN" "http://www.w3.org/Graphics/SVG/1.1/DTD/svg11.dtd">
<svg version="1.1" id="Ebene_1" xmlns="http://www.w3.org/2000/svg"  x="0px" y="0px"
	 width="48px" height="48px" viewBox="0 0 48 48" enable-background="new 0 0 48 48" xml:space="preserve">
<path d="M46,16c0,2.2-1.8,4-4,4c-0.359,0-0.7-0.04-1.02-0.14l-7.121,7.1C33.96,27.279,34,27.641,34,28c0,2.2-1.8,4-4,4s-4-1.8-4-4
	c0-0.359,0.04-0.721,0.141-1.04l-5.101-5.1C20.72,21.96,20.36,22,20,22s-0.72-0.04-1.04-0.14l-9.1,9.121C9.96,31.3,10,31.641,10,32
	c0,2.2-1.8,4-4,4s-4-1.8-4-4s1.8-4,4-4c0.36,0,0.7,0.04,1.02,0.141l9.12-9.101C16.04,18.72,16,18.36,16,18c0-2.2,1.8-4,4-4
	s4,1.8,4,4c0,0.36-0.04,0.72-0.14,1.04l5.1,5.1C29.279,24.04,29.641,24,30,24s0.721,0.04,1.04,0.14l7.101-7.12
	C38.04,16.7,38,16.36,38,16c0-2.2,1.8-4,4-4S46,13.8,46,16z"/>
</svg>
